<svg xmlns="http://www.w3.org/2000/svg"><symbol viewBox="0 0 32 32" id="shape-arrow-down"><title>arrow-down</title>  <path d="M24.773 13.701c-0.651 0.669-7.512 7.205-7.512 7.205-0.349 0.357-0.805 0.534-1.261 0.534-0.458 0-0.914-0.178-1.261-0.534 0 0-6.861-6.536-7.514-7.205-0.651-0.669-0.696-1.87 0-2.586 0.698-0.714 1.669-0.77 2.522 0l6.253 5.997 6.251-5.995c0.854-0.77 1.827-0.714 2.522 0 0.698 0.714 0.654 1.917 0 2.584z" fill="#000000"/> </symbol><symbol viewBox="0 0 32 32" id="shape-arrow-left"><title>arrow-left</title>  <path d="M18.299 7.226c-0.669 0.653-7.203 7.514-7.203 7.514-0.357 0.349-0.534 0.805-0.534 1.261s0.178 0.912 0.534 1.261c0 0 6.534 6.861 7.203 7.512 0.669 0.653 1.872 0.698 2.586 0 0.712-0.696 0.768-1.667-0.002-2.52l-5.995-6.253 5.995-6.253c0.77-0.854 0.714-1.826 0.002-2.522-0.715-0.696-1.918-0.653-2.586 0z" fill="#000000"/> </symbol><symbol viewBox="0 0 32 32" id="shape-arrow-right"><title>arrow-right</title>  <path d="M13.701 7.226c0.669 0.653 7.203 7.514 7.203 7.514 0.358 0.349 0.536 0.805 0.536 1.261s-0.178 0.912-0.536 1.261c0 0-6.534 6.861-7.203 7.512-0.669 0.653-1.87 0.698-2.586 0-0.714-0.696-0.77-1.667 0-2.52l5.997-6.253-5.995-6.253c-0.77-0.854-0.714-1.826 0-2.522 0.714-0.696 1.917-0.653 2.584 0z" fill="#000000"/> </symbol><symbol viewBox="0 0 32 32" id="shape-arrow-up"><title>arrow-up</title> <path d="M29.2,19.4c-1-1-11.3-10.8-11.3-10.8c-0.5-0.5-1.2-0.8-1.9-0.8c-0.7,0-1.4,0.3-1.9,0.8c0,0-10.3,9.8-11.3,10.8
	c-1,1-1,2.8,0,3.9c1,1.1,2.5,1.2,3.8,0l9.4-9l9.4,9c1.3,1.2,2.7,1.1,3.8,0C30.2,22.3,30.1,20.5,29.2,19.4z"/> </symbol><symbol viewBox="0 0 32 32" id="shape-camera"><title>camera</title>  <path d="M9.5 19c0 3.59 2.91 6.5 6.5 6.5s6.5-2.91 6.5-6.5-2.91-6.5-6.5-6.5-6.5 2.91-6.5 6.5zM30 8h-7c-0.5-2-1-4-3-4h-8c-2 0-2.5 2-3 4h-7c-1.1 0-2 0.9-2 2v18c0 1.1 0.9 2 2 2h28c1.1 0 2-0.9 2-2v-18c0-1.1-0.9-2-2-2zM16 27.875c-4.902 0-8.875-3.973-8.875-8.875s3.973-8.875 8.875-8.875c4.902 0 8.875 3.973 8.875 8.875s-3.973 8.875-8.875 8.875zM30 14h-4v-2h4v2z" fill="#000000"/> </symbol><symbol viewBox="0 0 32 32" id="shape-camera2"><title>camera2</title>  <path d="M12 9c0-2.761 2.239-5 5-5s5 2.239 5 5c0 2.761-2.239 5-5 5s-5-2.239-5-5zM0 9c0-2.761 2.239-5 5-5s5 2.239 5 5c0 2.761-2.239 5-5 5s-5-2.239-5-5zM24 19v-3c0-1.1-0.9-2-2-2h-20c-1.1 0-2 0.9-2 2v10c0 1.1 0.9 2 2 2h20c1.1 0 2-0.9 2-2v-3l8 5v-14l-8 5zM20 24h-16v-6h16v6z" fill="#000000"/> </symbol><symbol viewBox="0 0 32 32" id="shape-close"><title>close</title>  <path d="M31.708 25.708c-0-0-0-0-0-0l-9.708-9.708 9.708-9.708c0-0 0-0 0-0 0.105-0.105 0.18-0.227 0.229-0.357 0.133-0.356 0.057-0.771-0.229-1.057l-4.586-4.586c-0.286-0.286-0.702-0.361-1.057-0.229-0.13 0.048-0.252 0.124-0.357 0.228 0 0-0 0-0 0l-9.708 9.708-9.708-9.708c-0-0-0-0-0-0-0.105-0.104-0.227-0.18-0.357-0.228-0.356-0.133-0.771-0.057-1.057 0.229l-4.586 4.586c-0.286 0.286-0.361 0.702-0.229 1.057 0.049 0.13 0.124 0.252 0.229 0.357 0 0 0 0 0 0l9.708 9.708-9.708 9.708c-0 0-0 0-0 0-0.104 0.105-0.18 0.227-0.229 0.357-0.133 0.355-0.057 0.771 0.229 1.057l4.586 4.586c0.286 0.286 0.702 0.361 1.057 0.229 0.13-0.049 0.252-0.124 0.357-0.229 0-0 0-0 0-0l9.708-9.708 9.708 9.708c0 0 0 0 0 0 0.105 0.105 0.227 0.18 0.357 0.229 0.356 0.133 0.771 0.057 1.057-0.229l4.586-4.586c0.286-0.286 0.362-0.702 0.229-1.057-0.049-0.13-0.124-0.252-0.229-0.357z" fill="#000000"/> </symbol><symbol viewBox="0 0 32 32" id="shape-disk"><title>disk</title>  <path d="M28 0h-28v32h32v-28l-4-4zM16 4h4v8h-4v-8zM28 28h-24v-24h2v10h18v-10h2.343l1.657 1.657v22.343z" fill="#000000"/> </symbol><symbol viewBox="0 0 32 32" id="shape-facebook"><title>facebook</title>  <path d="M17.996 32h-5.996v-16h-4v-5.514l4-0.002-0.007-3.248c0-4.498 1.22-7.236 6.519-7.236h4.412v5.515h-2.757c-2.064 0-2.163 0.771-2.163 2.209l-0.008 2.76h4.959l-0.584 5.514-4.37 0.002-0.004 16z" fill="#000000"/> </symbol><symbol viewBox="0 0 32 32" id="shape-feed"><title>feed</title>  <path d="M4.259 23.467c-2.35 0-4.259 1.917-4.259 4.252 0 2.349 1.909 4.244 4.259 4.244 2.358 0 4.265-1.895 4.265-4.244-0-2.336-1.907-4.252-4.265-4.252zM0.005 10.873v6.133c3.993 0 7.749 1.562 10.577 4.391 2.825 2.822 4.384 6.595 4.384 10.603h6.16c-0-11.651-9.478-21.127-21.121-21.127zM0.012 0v6.136c14.243 0 25.836 11.604 25.836 25.864h6.152c0-17.64-14.352-32-31.988-32z" fill="#000000"/> </symbol><symbol viewBox="0 0 329.1 124.4" id="shape-film-top-white"><title>film-top-white</title>  <path fill="#fefefe" d="M246.8,0h-0.4h-81.3h-1H82.7h-0.4H0v61.7v1v61.7h82.3h0.4h81.3h1h81.3h0.4h82.3V62.7v-1V0H246.8z
	 M270.8,14.4h33.9v33.9h-33.9V14.4z M188.4,14.4h33.9v33.9h-33.9V14.4z M106.7,14.4h33.9v33.9h-33.9V14.4z M24.4,14.4h33.9v33.9
	H24.4V14.4z M58.3,110.1H24.4V76.1h33.9V110.1z M140.7,110.1h-33.9V76.1h33.9V110.1z M222.4,110.1h-33.9V76.1h33.9V110.1z
	 M304.7,110.1h-33.9V76.1h33.9V110.1z"/> </symbol><symbol viewBox="0 0 329 61.7" id="shape-film-top"><title>film-top</title>  <path fill="#111111" d="M329,61.7V0h-82.2h-0.4h-81.3h-1H82.7h-0.4H0v61.7H329z M270.8,14.4h33.9v33.9h-33.9V14.4z M188.4,14.4h33.9
	v33.9h-33.9V14.4z M106.7,14.4h33.9v33.9h-33.9C106.7,48.3,106.7,14.4,106.7,14.4z M24.4,14.4h33.9v33.9H24.4V14.4z"/> </symbol><symbol viewBox="0 0 32 32" id="shape-film"><title>film</title>  <path d="M0 4v24h32v-24h-32zM6 26h-4v-4h4v4zM6 18h-4v-4h4v4zM6 10h-4v-4h4v4zM24 26h-16v-20h16v20zM30 26h-4v-4h4v4zM30 18h-4v-4h4v4zM30 10h-4v-4h4v4zM12 10v12l8-6z" fill="#000000"/> </symbol><symbol viewBox="0 0 32 32" id="shape-github"><title>github</title>  <path d="M16 0c-8.837 0-16 7.163-16 16s7.163 16 16 16 16-7.163 16-16-7.163-16-16-16zM25.502 25.502c-1.235 1.235-2.672 2.204-4.272 2.881-0.406 0.172-0.819 0.323-1.238 0.453v-2.398c0-1.26-0.432-2.188-1.297-2.781 0.542-0.052 1.039-0.125 1.492-0.219s0.932-0.229 1.438-0.406 0.958-0.388 1.359-0.633 0.786-0.563 1.156-0.953 0.68-0.833 0.93-1.328 0.448-1.089 0.594-1.781 0.219-1.456 0.219-2.289c0-1.615-0.526-2.99-1.578-4.125 0.479-1.25 0.427-2.609-0.156-4.078l-0.391-0.047c-0.271-0.031-0.758 0.083-1.461 0.344s-1.492 0.688-2.367 1.281c-1.24-0.344-2.526-0.516-3.859-0.516-1.344 0-2.625 0.172-3.844 0.516-0.552-0.375-1.075-0.685-1.57-0.93-0.495-0.245-0.891-0.411-1.188-0.5s-0.573-0.143-0.828-0.164-0.419-0.026-0.492-0.016-0.125 0.021-0.156 0.031c-0.583 1.479-0.635 2.839-0.156 4.078-1.052 1.135-1.578 2.51-1.578 4.125 0 0.833 0.073 1.596 0.219 2.289s0.344 1.286 0.594 1.781 0.56 0.938 0.93 1.328 0.755 0.708 1.156 0.953 0.854 0.456 1.359 0.633 0.984 0.313 1.438 0.406 0.95 0.167 1.492 0.219c-0.854 0.583-1.281 1.51-1.281 2.781v2.445c-0.472-0.14-0.937-0.306-1.394-0.5-1.6-0.677-3.037-1.646-4.272-2.881-1.235-1.235-2.204-2.672-2.881-4.272-0.7-1.655-1.055-3.414-1.055-5.23s0.355-3.575 1.055-5.23c0.677-1.6 1.646-3.037 2.881-4.272s2.672-2.204 4.272-2.881c1.655-0.7 3.415-1.055 5.23-1.055s3.575 0.355 5.23 1.055c1.6 0.677 3.037 1.646 4.272 2.881 1.235 1.235 2.204 2.672 2.881 4.272 0.7 1.655 1.055 3.415 1.055 5.23s-0.355 3.575-1.055 5.23c-0.677 1.6-1.646 3.037-2.881 4.272z" fill="#000000"/> </symbol><symbol viewBox="0 0 32 32" id="shape-image"><title>image</title>  <path d="M28 6h-24v20h24v-20zM32 2v0 28h-32v-28h32zM26 24h-20v-4l6-10 8.219 10 5.781-4v2zM20 11c0-1.657 1.343-3 3-3s3 1.343 3 3c0 1.657-1.343 3-3 3s-3-1.343-3-3z" fill="#000000"/> </symbol><symbol viewBox="0 0 32 32" id="shape-linkedin"><title>linkedin</title>  <path d="M26.625 0h-21.25c-2.956 0-5.375 2.419-5.375 5.375v21.25c0 2.956 2.419 5.375 5.375 5.375h21.25c2.956 0 5.375-2.419 5.375-5.375v-21.25c0-2.956-2.419-5.375-5.375-5.375zM12 26h-4v-14h4v14zM10 10c-1.105 0-2-0.895-2-2s0.895-2 2-2 2 0.895 2 2-0.895 2-2 2zM26 26h-4v-8c0-1.105-0.895-2-2-2s-2 0.895-2 2v8h-4v-14h4v2.483c0.825-1.133 2.086-2.483 3.5-2.483 2.485 0 4.5 2.239 4.5 5v9z" fill="#000000"/> </symbol><symbol viewBox="0 0 134.2 52.3" id="shape-logo"><title>logo</title>  <path d="M0,1.7C0,0.8,0.8,0,1.7,0h8.4c6.6,0,11,0.3,13.3,0.9c2.3,0.6,4.1,1.6,5.3,3s2,2.9,2.3,4.6c0.3,1.7,0.5,5,0.5,10v18.3
    c0,4.7-0.2,7.8-0.7,9.4c-0.4,1.6-1.2,2.8-2.3,3.7c-1.1,0.9-2.5,1.5-4.1,1.9s-4.1,0.5-7.3,0.5H1.7c-1,0-1.7-0.8-1.7-1.7V1.7z
     M13.6,10.8v30.6c0,1.1,1.1,2,2.2,1.7c0.7-0.2,1.2-0.5,1.4-0.9c0.5-0.8,0.7-2.9,0.7-6.4V15.5c0-2.4-0.1-3.9-0.2-4.6
    c-0.2-0.7-0.5-1.2-1-1.5c-0.2-0.1-0.6-0.3-1-0.3C14.6,8.9,13.6,9.7,13.6,10.8z"/> <path d="M49.6,1.7v3.3c0,1-0.8,1.7-1.7,1.7h-10c-1,0-1.7-0.8-1.7-1.7V1.7c0-1,0.8-1.7,1.7-1.7h10C48.9,0,49.6,0.8,49.6,1.7z
     M49.6,11.2v39.4c0,1-0.8,1.7-1.7,1.7h-10c-1,0-1.7-0.8-1.7-1.7V11.2c0-1,0.8-1.7,1.7-1.7h10C48.9,9.4,49.6,10.2,49.6,11.2z"/> <path d="M69.6,0c1,0,1.7,0.8,1.7,1.7V35c0,5.2-0.1,8.6-0.2,10.1c-0.1,1.5-0.6,2.8-1.5,4.1c-0.9,1.2-2.1,2-3.6,2.5
    c-1.5,0.5-3.8,0.7-6.8,0.7h-5.1c-1,0-1.7-0.8-1.7-1.7V45c0-1,0.8-1.7,1.8-1.7c0,0,0,0,0,0c1,0,1.7-0.2,2.3-0.7
    c0.6-0.5,0.9-1.1,1-1.7c0.1-0.7,0.1-2,0.1-4V1.7c0-1,0.8-1.7,1.7-1.7H69.6z"/> <path d="M89.7,1.7v3.3c0,1-0.8,1.7-1.7,1.7H78c-1,0-1.7-0.8-1.7-1.7V1.7C76.2,0.8,77,0,78,0h10C88.9,0,89.7,0.8,89.7,1.7z
     M89.7,11.2v39.4c0,1-0.8,1.7-1.7,1.7H78c-1,0-1.7-0.8-1.7-1.7V11.2c0-1,0.8-1.7,1.7-1.7h10C88.9,9.4,89.7,10.2,89.7,11.2z"/> <path d="M96.5,0h19.6c1,0,1.7,0.8,1.7,1.7v7c0,1-0.8,1.7-1.7,1.7h-6c-1,0-1.7,0.8-1.7,1.7v6.4c0,1,0.8,1.7,1.7,1.7h4.9
    c1,0,1.7,0.8,1.7,1.7v6.5c0,1-0.8,1.7-1.7,1.7h-4.9c-1,0-1.7,0.8-1.7,1.7v18.5c0,1-0.8,1.7-1.7,1.7H96.5c-1,0-1.7-0.8-1.7-1.7V1.7
    C94.8,0.8,95.5,0,96.5,0z"/> <path d="M134.2,11.2v39.4c0,1-0.8,1.7-1.7,1.7h-10c-1,0-1.7-0.8-1.7-1.7V11.2c0-1,0.8-1.7,1.7-1.7h10
    C133.4,9.4,134.2,10.2,134.2,11.2z"/> <path d="M133.1,2.6l-5-2.1c-0.8-0.4-1.8,0.2-1.8,1.1l0,0.4l-3.7-1.4c-0.8-0.4-1.8,0.2-1.8,1.1l0,4.4c0,0.9,1,1.5,1.8,1.1l3.7-1.5
    l0,0.4c0,0.9,1,1.5,1.8,1.1l5-2.2C133.9,4.3,133.9,3,133.1,2.6z"/> </symbol><symbol viewBox="0 0 32 32" id="shape-menu"><title>menu</title>  <path d="M2 6h28v6h-28zM2 14h28v6h-28zM2 22h28v6h-28z" fill="#000000"/> </symbol><symbol viewBox="0 0 32 32" id="shape-quotes-left"><title>quotes-left</title>  <path d="M7.031 14c3.866 0 7 3.134 7 7 0 3.866-3.134 7-7 7-3.866 0-7-3.134-7-7l-0.031-1c0-7.732 6.268-14 14-14v4c-2.671 0-5.182 1.040-7.071 2.929-0.364 0.364-0.695 0.751-0.995 1.157 0.357-0.056 0.724-0.086 1.097-0.086zM25.031 14c3.866 0 7 3.134 7 7 0 3.866-3.134 7-7 7-3.866 0-7-3.134-7-7l-0.031-1c0-7.732 6.268-14 14-14v4c-2.671 0-5.182 1.040-7.071 2.929-0.364 0.364-0.695 0.751-0.995 1.157 0.358-0.056 0.724-0.086 1.097-0.086z" fill="#aaa"/> </symbol><symbol viewBox="0 0 32 32" id="shape-radio-checked"><title>radio-checked</title>  <path d="M16 0c-8.837 0-16 7.163-16 16s7.163 16 16 16 16-7.163 16-16-7.163-16-16-16zM16 28c-6.627 0-12-5.373-12-12s5.373-12 12-12c6.627 0 12 5.373 12 12s-5.373 12-12 12zM10 16c0-3.314 2.686-6 6-6s6 2.686 6 6c0 3.314-2.686 6-6 6s-6-2.686-6-6z" fill="#000000"/> </symbol><symbol viewBox="0 0 128.1 128.1" id="shape-reel"><title>reel</title>  <path fill="#FECC53" d="M36.7,113.1c28.5,14.5,63.3,3.1,77.8-25.4s3.1-63.3-25.4-77.8S25.8,6.8,11.3,35.3S8.2,98.6,36.7,113.1z
	 M35.8,69.9c5.1,3.2,7.2,9.7,5,15.3c-2.9,7.6-12,10.5-18.8,6.1c-5.1-3.2-7.2-9.7-5-15.3C19.9,68.5,28.9,65.6,35.8,69.9z M90.4,52.3
	c-5.1-3.2-7.2-9.7-5-15.3c2.9-7.6,12-10.5,18.8-6.1c5.1,3.2,7.2,9.7,5,15.3C106.3,53.7,97.3,56.6,90.4,52.3z M55,34.3
	c-5.1-3.2-7.2-9.7-5-15.3c2.9-7.6,12-10.5,18.8-6.1c5.1,3.2,7.2,9.7,5,15.3C70.9,35.7,61.8,38.6,55,34.3z M42.1,46.9
	c-3.2,6.3-10.9,8.8-17.2,5.6s-8.8-10.9-5.6-17.2s10.9-8.8,17.2-5.6S45.3,40.6,42.1,46.9z M67.9,51.7c6.3,3.2,8.8,10.9,5.6,17.2
	s-10.9,8.8-17.2,5.6s-8.8-10.9-5.6-17.2C53.9,51,61.6,48.5,67.9,51.7z M92.5,93.5c-6.3-3.2-8.8-10.9-5.6-17.2
	c3.2-6.3,10.9-8.8,17.2-5.6c6.3,3.2,8.8,10.9,5.6,17.2C106.5,94.2,98.8,96.7,92.5,93.5z M57.4,109.4c-5.1-3.2-7.2-9.7-5-15.3
	c2.9-7.6,12-10.5,18.8-6.1c5.1,3.2,7.2,9.7,5,15.3C73.3,110.8,64.2,113.7,57.4,109.4z"/> <path fill="#5693C3" d="M36.9,117.6c29.5,15,65.6,3.2,80.6-26.3s3.2-65.6-26.3-80.6S25.6,7.4,10.6,36.9S7.4,102.6,36.9,117.6z
	 M36,72.8c5.2,3.3,7.4,10.1,5.2,15.9c-3,7.8-12.4,10.9-19.5,6.4c-5.2-3.3-7.4-10.1-5.2-15.9C19.5,71.4,28.9,68.3,36,72.8z
	 M92.6,54.5c-5.2-3.3-7.4-10.1-5.2-15.9c3-7.8,12.4-10.9,19.5-6.4c5.2,3.3,7.4,10.1,5.2,15.9C109.1,56,99.7,59,92.6,54.5z
	 M55.9,35.9c-5.2-3.3-7.4-10.1-5.2-15.9c3-7.8,12.4-10.9,19.5-6.4c5.2,3.3,7.4,10.1,5.2,15.9C72.4,37.3,63,40.4,55.9,35.9z
	 M42.5,48.9c-3.3,6.5-11.3,9.1-17.8,5.8c-6.5-3.3-9.1-11.3-5.8-17.8s11.3-9.1,17.8-5.8S45.8,42.4,42.5,48.9z M69.2,53.9
	c6.5,3.3,9.1,11.3,5.8,17.8s-11.3,9.1-17.8,5.8s-9.1-11.3-5.8-17.8C54.7,53.2,62.7,50.6,69.2,53.9z M94.8,97.3
	C88.3,94,85.7,86,89,79.5s11.3-9.1,17.8-5.8c6.5,3.3,9.1,11.3,5.8,17.8S101.3,100.6,94.8,97.3z M58.4,113.7
	c-5.2-3.3-7.4-10.1-5.2-15.9c3-7.8,12.4-10.9,19.5-6.4c5.2,3.3,7.4,10.1,5.2,15.9C74.8,115.2,65.4,118.2,58.4,113.7z"/> <path fill="#222334" d="M35.1,121.2c31.5,16,70.1,3.4,86.1-28.1S124.6,23,93.1,7S23,3.5,7,35.1S3.5,105.2,35.1,121.2z M34.1,73.4
	c5.6,3.6,7.9,10.8,5.5,17c-3.3,8.4-13.3,11.6-20.8,6.8c-5.6-3.6-7.9-10.8-5.5-17C16.5,71.8,26.5,68.6,34.1,73.4z M94.5,53.8
	c-5.6-3.6-7.9-10.8-5.5-17c3.3-8.4,13.3-11.6,20.8-6.8c5.6,3.6,7.9,10.8,5.5,17C112.1,55.4,102.1,58.7,94.5,53.8z M55.3,33.9
	c-5.6-3.6-7.9-10.8-5.5-17c3.3-8.4,13.3-11.6,20.8-6.8c5.6,3.6,7.9,10.8,5.5,17C72.9,35.5,62.9,38.8,55.3,33.9z M41.1,47.9
	c-3.5,7-12,9.7-19,6.2c-7-3.5-9.7-12-6.2-19s12-9.7,19-6.2S44.6,41,41.1,47.9z M69.6,53.3c7,3.5,9.7,12,6.2,19s-12,9.7-19,6.2
	s-9.7-12-6.2-19C54.1,52.5,62.6,49.7,69.6,53.3z M96.9,99.5c-7-3.5-9.7-12-6.2-19s12-9.7,19-6.2s9.7,12,6.2,19
	C112.3,100.3,103.8,103.1,96.9,99.5z M58,117.1c-5.6-3.6-7.9-10.8-5.5-17c3.3-8.4,13.3-11.6,20.8-6.8c5.6,3.6,7.9,10.8,5.5,17
	C75.5,118.6,65.5,121.9,58,117.1z"/> </symbol><symbol viewBox="0 0 32 32" id="shape-rocket"><title>rocket</title>  <path d="M22 2l-10 10h-6l-6 8c0 0 6.357-1.77 10.065-0.94l-10.065 12.94 13.184-10.255c1.839 4.208-1.184 10.255-1.184 10.255l8-6v-6l10-10 2-10-10 2z" fill="#000000"/> </symbol><symbol viewBox="0 0 547.8 462.4" id="shape-scanner"><title>scanner</title>  <polygon fill="#999999" points="547.8,453.3 0,462.4 0,0 547.8,0 "/> <rect x="100.7" y="117.4" fill="#191919" width="324.2" height="53.4"/> <path fill="#626267" d="M423.8,170.8H101.5l-21.3,18.7c0,0,87,3.8,183.4,3.8s183.8-3.8,183.8-3.8L423.8,170.8z"/> <path fill="#605C5A" d="M425.2,117.4H101.5L80.1,98.8c0,0,89.3-5.3,182.7-5.3s184.5,5.3,184.5,5.3L425.2,117.4z"/> <path fill="#75716F" d="M103,171.6l-21.3,19.2c0,0-13-22.9-13-46.8s13-46.8,13-46.8l21.3,22.3V171.6z"/> <path fill="#89817F" d="M425.2,116.6l21.3-17.9c0,0,13,22.2,13,45.3s-13,45.3-13,45.3l-21.3-18.6V116.6z"/> <circle fill="#1C2538" cx="490.5" cy="62.4" r="22.8"/> <path fill="#B0BCD4" d="M482.4,62.4c0,9.3,15,16.9,5.6,16.9c-9.3,0-16.9-7.6-16.9-16.9s7.6-16.9,16.9-16.9
	C497.4,45.6,482.4,53.1,482.4,62.4z"/> <circle fill="#90D002" cx="36.7" cy="62.4" r="9.9"/> </symbol><symbol viewBox="0 0 32 32" id="shape-storage"><title>storage</title>  <path d="M6 28h20c3.314 0 6-2.686 6-6h-32c0 3.314 2.686 6 6 6zM26 24h2v2h-2v-2zM30 4h-28l-2 16h32z" fill="#000000"/> </symbol><symbol viewBox="0 0 32 32" id="shape-tv"><title>tv</title>  <path d="M30.662 9.003c-2.775-0.399-5.731-0.688-8.815-0.851l5.153-5.153-2-2-7.017 7.017c-0.656-0.011-1.317-0.017-1.983-0.017v0l-8-8-2 2 6.069 6.069c-3.779 0.133-7.386 0.454-10.731 0.935-0.86 3.366-1.338 7.086-1.338 10.997s0.477 7.63 1.338 10.997c4.489 0.645 9.448 1.003 14.662 1.003s10.173-0.358 14.662-1.003c0.86-3.366 1.338-7.086 1.338-10.997s-0.477-7.63-1.338-10.997zM26.997 27.331c-3.367 0.43-7.086 0.669-10.997 0.669s-7.63-0.239-10.997-0.669c-0.645-2.244-1.003-4.724-1.003-7.331s0.358-5.087 1.003-7.331c3.366-0.43 7.086-0.669 10.997-0.669s7.63 0.239 10.996 0.669c0.645 2.244 1.004 4.724 1.004 7.331s-0.358 5.087-1.003 7.331z" fill="#000000"/> </symbol><symbol viewBox="0 0 32 32" id="shape-twitter"><title>twitter</title>  <path d="M32 6.076c-1.177 0.522-2.443 0.875-3.771 1.034 1.355-0.813 2.396-2.099 2.887-3.632-1.269 0.752-2.674 1.299-4.169 1.593-1.198-1.276-2.904-2.073-4.792-2.073-3.626 0-6.565 2.939-6.565 6.565 0 0.515 0.058 1.016 0.17 1.496-5.456-0.274-10.294-2.888-13.532-6.86-0.565 0.97-0.889 2.097-0.889 3.301 0 2.278 1.159 4.287 2.921 5.465-1.076-0.034-2.088-0.329-2.974-0.821-0.001 0.027-0.001 0.055-0.001 0.083 0 3.181 2.263 5.834 5.266 6.437-0.551 0.15-1.131 0.23-1.73 0.23-0.423 0-0.834-0.041-1.235-0.118 0.835 2.608 3.26 4.506 6.133 4.559-2.247 1.761-5.078 2.81-8.154 2.81-0.53 0-1.052-0.031-1.566-0.092 2.905 1.863 6.356 2.95 10.064 2.95 12.076 0 18.679-10.004 18.679-18.68 0-0.285-0.006-0.568-0.019-0.849 1.283-0.926 2.396-2.082 3.276-3.398z" fill="#000000"/> </symbol><symbol viewBox="0 0 147.4 72" id="shape-yelp"><title>yelp</title>  <g> <path fill="#FFFFFF" stroke="#BCBEC0" stroke-width="0.5" d="M137.4,58.6L137.4,58.6C137.4,58.6,137.4,58.6,137.4,58.6L137.4,58.6z
		 M88.9,27.2C88.9,27.2,88.9,27.2,88.9,27.2C89,27.2,89,27.2,88.9,27.2L88.9,27.2z M144.7,40.2c-0.9-0.7-1.1-0.8-6.8-2.7
		c4.9-1.2,5.1-1.3,6-1.9c2-1.3,3-3.5,2.9-5.9l0-0.3c-0.4-3.8-5.4-11.1-8.7-12.7c-2.2-1.1-4.6-0.9-6.6,0.4c-0.9,0.6-1,0.7-4.7,5.8
		c-0.4-5.9-1.1-16.4-1.2-17.4l0-0.2l-0.1-0.2c-0.6-2.3-2.4-4-4.8-4.6c-4-1-14.5,2-17.4,4.9c-1.7,1.7-2.3,4.1-1.7,6.3l0.1,0.4
		l0.2,0.4c0.3,0.6,1,1.7,7.1,11.3l2.3,3.6c-5.5-2.2-5.7-2.2-6.8-2.3c-2.2-0.1-4.3,1.1-5.6,3.1l0,0c-0.7,1.1-1.1,2.6-1.3,4.1
		c-1.8-2.4-4.4-4.3-8.4-5.1c-2.9-0.6-5.5-0.2-8.1,0.8c-2.3-1.5-5.5-1.6-8.1-0.1c-0.8,0.5-1.4,1-1.9,1.6v-3.3l-0.3-1.9L70.5,24
		c-0.5-2.1-2.1-3.9-4.2-4.7l0,0c-2.3-0.9-4.9-0.7-7.2,0.6c-2.4,1.4-3.6,3.7-3.6,6.9v6.6c-0.8-1.3-1.9-2.4-3.1-3.4
		c-3.3-2.5-7.8-3.4-12.9-2.5c-3,0.5-5.4,1.8-7.4,3.7c0-0.1-0.1-0.1-0.1-0.2c-1-1.8-2.6-3-4.7-3.5c-3.4-0.9-7.8,0.2-9.6,6.4
		c0,0-0.3,1-0.7,2.4c-0.8-1.5-2.8-5.4-2.9-5.5c-1.8-2.8-5.5-4-8.9-2.7c-3.2,1.2-5,4-5,7.3c0,1,0.2,2.1,0.6,3.2l0.1,0.3
		c0,0,6.6,13.4,8.5,17.2c-3.1,0.8-5.2,3.1-5.6,6.2c0,0.3-0.1,0.6-0.1,0.9c0,2,0.8,3.9,2.3,5.3c2.3,2.1,5.9,2.8,10.1,2
		c4.6-0.9,7.2-3.6,9-9.5l2.8-8.8c0.9,3.7,2.6,6.1,4.1,7.7c2.3,2.2,6.4,4.7,13.2,3.8c5.1-0.7,8.6-3,10.5-5.7l0.1,0.6
		c0.5,1.9,2,3.6,4,4.5c2.1,1,4.5,0.9,6.6,0c1.1-0.5,2-1.2,2.7-2.2v2.8c0,4.6,2.6,6.5,4.2,7.3c2.1,1,4.5,1.1,6.7,0.2
		c2-0.9,3.5-2.5,4.1-4.6l0.1-0.3l0.3-1.9c0,0,0-0.7,0-0.8c2.8,0.3,5.6-0.2,8.1-1.5c1.1-0.6,2.1-1.3,3-2.1h1.9c1,0.5,2.2,0.9,3.4,0.9
		c1.2,0,2.4-0.3,3.4-0.9h5.4c3.6,2,8.8,3.5,11.6,3.1c2.4-0.4,4.3-2,5.1-4.1l0-0.1c0.3-1,0.4-1.2,0.4-6.7c3.1,4.9,3.2,5.1,4.1,5.7
		c1.8,1.4,4.3,1.8,6.5,0.9c3.6-1.4,9.1-8.4,9.6-12.3c0-0.3,0.1-0.7,0.1-1C147.1,43.3,146.3,41.5,144.7,40.2z"/> <g> <g> <path fill="#E6E7E8" d="M102,32.5c-0.9,1.4-1.2,5.8-0.9,8.7c0.1,1,0.3,1.8,0.5,2.2c0.3,0.7,0.9,1.1,1.6,1.1
				c0.4,0,0.7-0.1,8.7-2.6c0,0,3.6-1.1,3.6-1.1c0.9-0.2,1.5-1,1.6-2.1c0.1-1.1-0.5-2-1.4-2.4c0,0-2.5-1-2.5-1
				c-8.6-3.6-9-3.7-9.5-3.7C103,31.5,102.4,31.9,102,32.5z"/> <path fill="#E6E7E8" d="M121.3,59.1c0.1-0.4,0.2-0.7,0.2-9.1c0,0,0-3.7,0-3.8c0.1-0.9-0.5-1.7-1.5-2.1c-1-0.4-2.1-0.2-2.7,0.6
				c0,0-1.8,2.1-1.8,2.1c-6.1,7.1-6.3,7.4-6.5,7.9c-0.1,0.2-0.1,0.5-0.1,0.8c0,0.4,0.2,0.8,0.5,1.1c1.4,1.7,8.1,4.1,10.3,3.8
				C120.5,60.1,121.1,59.7,121.3,59.1z"/> <path fill="#E6E7E8" d="M135,56.1c2-0.8,6.5-6.4,6.8-8.6c0.1-0.8-0.1-1.4-0.7-1.8c-0.3-0.3-0.6-0.4-8.6-3c0,0-3.5-1.2-3.6-1.2
				c-0.9-0.3-1.8,0-2.5,0.8c-0.7,0.8-0.8,1.9-0.2,2.7l1.4,2.3c4.8,7.8,5.1,8.3,5.5,8.6C133.6,56.3,134.3,56.4,135,56.1L135,56.1z"/> <path fill="#E6E7E8" d="M130.8,36.2c9.1-2.2,9.5-2.3,9.9-2.6c0.6-0.4,0.8-1,0.8-1.8c0,0,0,0,0-0.1c-0.2-2.2-4.2-8.1-6.1-9
				c-0.7-0.3-1.4-0.3-1.9,0.1c-0.4,0.2-0.6,0.6-5.5,7.3c0,0-2.2,3-2.2,3c-0.6,0.7-0.6,1.7,0,2.6c0.6,0.9,1.6,1.3,2.5,1.1
				c0,0,0,0.1-0.1,0.1C128.5,36.7,129.3,36.5,130.8,36.2z"/> <path fill="#E6E7E8" d="M121.6,28.6L121.6,28.6c-0.2-3.6-1.2-19.7-1.4-20.5c-0.2-0.7-0.7-1.2-1.5-1.4c-2.3-0.6-11.2,1.9-12.9,3.6
				c-0.5,0.5-0.7,1.2-0.6,1.8c0.3,0.5,11.3,17.9,11.3,17.9c1.6,2.7,3,2.2,3.4,2.1C120.5,32.1,121.8,31.7,121.6,28.6z"/> </g> </g> <g> <g> <path fill="#B3282D" d="M102.7,30.7c-0.9,1.4-1.2,5.8-0.9,8.7c0.1,1,0.3,1.8,0.5,2.2c0.3,0.7,0.9,1.1,1.6,1.1
				c0.4,0,0.7-0.1,8.7-2.6c0,0,3.6-1.1,3.6-1.1c0.9-0.2,1.5-1,1.6-2.1c0.1-1.1-0.5-2-1.4-2.4c0,0-2.5-1-2.5-1
				c-8.6-3.6-9-3.7-9.5-3.7C103.7,29.7,103.1,30,102.7,30.7z"/> <path fill="#B3282D" d="M122,57.2c0.1-0.4,0.2-0.7,0.2-9.1c0,0,0-3.7,0-3.8c0.1-0.9-0.5-1.7-1.5-2.1c-1-0.4-2.1-0.1-2.7,0.6
				c0,0-1.8,2.1-1.8,2.1c-6.1,7.1-6.3,7.4-6.5,7.9c-0.1,0.3-0.1,0.5-0.1,0.8c0,0.4,0.2,0.7,0.5,1.1c1.4,1.7,8.1,4.1,10.3,3.8
				C121.3,58.3,121.8,57.9,122,57.2z"/> <path fill="#B3282D" d="M135.7,54.3c2-0.8,6.5-6.4,6.8-8.6c0.1-0.8-0.1-1.4-0.6-1.8c-0.3-0.3-0.6-0.4-8.6-3c0,0-3.5-1.2-3.6-1.2
				c-0.9-0.3-1.8,0-2.5,0.8c-0.7,0.8-0.8,1.9-0.2,2.7l1.4,2.3c4.8,7.8,5.1,8.3,5.5,8.6C134.3,54.5,135,54.6,135.7,54.3L135.7,54.3z"/> <path fill="#B3282D" d="M131.5,34.3c9.1-2.2,9.5-2.3,9.9-2.6c0.6-0.4,0.8-1,0.8-1.8c0,0,0,0,0-0.1c-0.2-2.2-4.2-8.1-6.1-9
				c-0.7-0.3-1.4-0.3-1.9,0.1c-0.4,0.2-0.6,0.6-5.5,7.3c0,0-2.2,3-2.2,3c-0.6,0.7-0.6,1.7,0,2.6c0.6,0.9,1.6,1.3,2.5,1.1
				c0,0,0,0.1,0,0.1C129.3,34.9,130.1,34.7,131.5,34.3z"/> <path fill="#B3282D" d="M122.4,26.8L122.4,26.8c-0.2-3.6-1.2-19.7-1.4-20.5c-0.2-0.7-0.7-1.2-1.5-1.4c-2.3-0.6-11.2,1.9-12.9,3.6
				c-0.5,0.6-0.7,1.2-0.6,1.8c0.3,0.5,11.3,17.9,11.3,17.9c1.6,2.6,3,2.2,3.4,2.1C121.2,30.3,122.5,29.9,122.4,26.8z"/> </g> </g> <g> <g> <path d="M9.2,65c1.2,1.1,3.3,1.4,6,0.8c2.5-0.5,4-1.6,5.5-6.3l7.4-23.2c0.4-1.2,0.4-2.3-0.1-3.1c-0.4-0.6-0.9-1.1-1.8-1.3
				c-1.3-0.4-3-0.3-4,3.2l-3.9,13.2c0,0-7.9-14.9-7.9-14.9c-0.5-1-2-1.7-3.4-1.1C5.1,33,4.4,34.8,5.2,37c0,0,9.6,19.5,9.6,19.6
				c0,0,0.3,0.7,0.3,0.8c0,0,0.1,0.5,0.1,0.5c0,0.8-0.3,1.4-0.7,1.8c-0.4,0.4-1.1,0.6-1.8,0.6c0,0-1.5,0-1.6,0
				c-1.5,0.2-2.5,1.1-2.7,2.4C8.3,63.7,8.6,64.4,9.2,65z"/> <path d="M53.3,41.2c-0.3-3.3-1.6-6-3.7-7.6c-2.3-1.7-5.5-2.3-9.2-1.6c-4.7,0.8-7.6,4.2-8.2,9.8c-0.8,6.7,0.3,11.7,3.2,14.6
				c2.2,2.2,5.4,3,9.4,2.5c5.6-0.8,8.1-3.9,8.1-5.8c0-1.4-0.9-2.6-2.1-2.7c-0.7-0.1-1.3,0-2.7,1.2c-2,1.7-4.2,2.4-6.2,1.9
				c-1.5-0.4-2.7-1.4-3.3-2.9c0,0-0.2-1-0.2-0.9c-0.2-0.9-0.2-1.7,0.3-2.1l0.1-0.1H51c1.1,0,1.7-0.1,2-0.5
				C53.7,46.4,53.6,44.2,53.3,41.2z M47,43H36.8c-0.3-0.2-0.4-0.5-0.2-1.6c0.1-0.5,0.3-1,0.7-1.7c0.1-0.2,0.3-0.4,0.4-0.6
				c0.8-1,1.8-1.6,2.9-1.8c3.6-0.9,6.1,0.9,6.5,4.1C47.3,42.8,47.2,43,47,43z"/> <path d="M64.5,23.5c-1-0.4-2.1-0.3-3,0.3c-0.9,0.5-1.3,1.4-1.3,2.9v29.4c0,0,0.2,1,0.2,1.1c0.2,0.7,0.8,1.4,1.5,1.7
				c0.8,0.4,1.8,0.4,2.7,0c1.1-0.5,1.7-1.5,1.7-2.9V26.6c0,0-0.2-1.4-0.2-1.4C65.8,24.4,65.3,23.8,64.5,23.5z"/> <path d="M88,31.8c-2.7-0.6-5.1-0.1-7.3,1.4c0,0-0.3,0.2-0.3,0.3l-0.2,0.1l-0.6,0.3l-0.2-0.7l-0.1-0.2l-0.1-0.2l0,0
				c0,0-0.1-0.2-0.2-0.2c-0.6-1-2.4-1.5-4-0.6c-0.8,0.4-1.2,1.1-1.2,2.9v28.8c0,1.6,0.5,2.6,1.6,3.1c0.9,0.5,1.9,0.5,2.8,0.1
				c0.8-0.3,1.3-0.9,1.5-1.6l0.2-1.2v-5l0-0.8l0-0.2l0-0.1l0.3-0.9l0.9,0.6c0,0,0.2,0.1,0.3,0.3l0.3,0.2c0,0,0.3,0.2,0.3,0.2
				c0,0,0.3,0.1,0.3,0.1c2.4,1.1,5.7,1,8.3-0.3c3.3-1.7,4.9-4.7,5.3-9.8C96.6,37.9,94.3,33,88,31.8z M87.7,53.3
				c-4.1,0-4.7-3.6-4.8-6.3c0,0-0.1-1.6-0.1-1.6s0-1.2,0-1.2c0.3-4.7,1.2-6.6,3.7-7.1c1.7-0.4,2.9-0.2,3.9,0.6
				c1.4,1.2,2.1,3.6,2,7.7C92.5,50.2,91.7,53.3,87.7,53.3z"/> </g> </g> <g> <path d="M101,54c0.9,0,1.7,0.7,1.7,1.7c0,1-0.8,1.7-1.7,1.7c-0.9,0-1.7-0.7-1.7-1.7C99.3,54.7,100.1,54,101,54z M101,57.1
			c0.8,0,1.4-0.6,1.4-1.5c0-0.8-0.6-1.4-1.4-1.4c-0.8,0-1.4,0.6-1.4,1.5C99.6,56.5,100.2,57.1,101,57.1z M100.4,54.7h0.7
			c0.5,0,0.7,0.2,0.7,0.6c0,0.3-0.2,0.5-0.5,0.5l0.6,0.9h-0.3l-0.5-0.8h-0.4v0.8h-0.3V54.7z M100.7,55.6h0.3c0.3,0,0.5,0,0.5-0.3
			c0-0.3-0.2-0.3-0.4-0.3h-0.4V55.6z"/> </g> </g> </symbol></svg>