 <!-- Generator: Adobe Illustrator 18.0.0, SVG Export Plug-In  -->
<svg version="1.1" xmlns="http://www.w3.org/2000/svg" xmlns:xlink="http://www.w3.org/1999/xlink" xmlns:a="http://ns.adobe.com/AdobeSVGViewerExtensions/3.0/" x="0px" y="0px" width="189.1px" height="116.3px" viewBox="0 0 189.1 116.3" enable-background="new 0 0 189.1 116.3" xml:space="preserve">
    <defs>
    </defs>
    <rect x="174.1" y="33.8" fill="#222334" width="15" height="48.6"/>
    <rect x="114.5" y="33.8" fill="#222334" width="15" height="48.6"/>
    <polygon fill="#222334" points="65.1,82.5 79.9,82.5 80.1,33.8 65.1,33.8 "/>
    <polyline fill="#222334" points="136.8,46.4 157.1,46.5 157,34.3 137.3,34.3 "/>
    <path fill="#222334" d="M40.1,34.2c-4.7-3.2-10.5-4.9-16.7-4.3C11.1,31.1,0.7,44.3,0,56.7C-0.8,71.4,11.4,84,25.8,84
        c6.5,0,12.5-2.5,17-6.6l2.2,5.1h9V5h-15L40.1,34.2z M18.2,68.8l-0.1-25.1l23.1,12.2L18.2,68.8z"/>
    <path fill="#222334" d="M104.8,33.8H89.1c0,0,1.3,51.7,1.3,54.1c0,10.2-8.3,14.3-10.6,15.1c-2.8,0.9-5.8,1-5.8,1L73.7,116
        c0,0,7.2,1.1,12.3-0.6c7.8-2.6,12.3-7.6,14.7-11.4c1.9-3.1,3.7-7.5,3.9-12.8C105.5,73.4,104.8,33.8,104.8,33.8z"/>
    <path fill="#222334" d="M141.6,82.5h15.7c0,0-1.3-51.7-1.3-54.1c0-10.2,8.3-14.3,10.6-15.1c2.8-0.9,5.8-1,5.8-1l0.3-11.9
        c0,0-7.2-1.1-12.3,0.6c-7.8,2.6-12.3,7.6-14.7,11.4c-1.9,3.1-3.7,7.5-3.9,12.8C140.9,42.9,141.6,82.5,141.6,82.5z"/>
    <path fill="#222334" d="M97.4,12.8c-3.8,0-7,3.1-7,7c0,3.9,3.1,7.1,6.9,7.1c3.9,0,7.1-3.1,7.1-6.9C104.5,16.1,101.3,12.8,97.4,12.8z
        "/>
    <path fill="#222334" d="M188.7,19.9c0-3.9-3.2-7.2-7.1-7.1c-3.8,0-7,3.2-7,7.1c0,3.9,3.2,7,7,7C185.5,26.9,188.7,23.7,188.7,19.9z"
        />
    <path fill="#222334" d="M73.5,12.8c3.9,0,7.1,3.3,7,7.2c-0.1,3.8-3.3,7-7.1,6.9c-3.9,0-7-3.2-6.9-7.1C66.5,15.9,69.7,12.8,73.5,12.8
        z"/>
    <path fill="#222334" d="M129.1,19.9c0,3.8-3.2,7-7.1,7c-3.8,0-7-3.2-7-7c0-3.9,3.1-7.1,7-7.1C125.8,12.8,129.1,16,129.1,19.9z"/>
    <polyline fill="#222334" points="155.1,46.8 163.6,42.8 163.6,34.3 155.1,34.3 "/>
</svg>