<!-- Generator: Adobe Illustrator 18.0.0, SVG Export Plug-In  -->
<svg version="1.1"
     xmlns="http://www.w3.org/2000/svg" xmlns:xlink="http://www.w3.org/1999/xlink" xmlns:a="http://ns.adobe.com/AdobeSVGViewerExtensions/3.0/"
     x="0px" y="0px" width="202.8px" height="80px" viewBox="0 0 202.8 80" enable-background="new 0 0 202.8 80" xml:space="preserve"
    >
<defs>
</defs>
<path fill="#fefefe" d="M197.4,80h-10.4c-2.5,0-4.6-2-4.6-4.6V29.6c0-2.5,2-4.6,4.6-4.6h10.4c2.5,0,4.6,2,4.6,4.6v45.9
    C202,78,200,80,197.4,80z"/>
<path fill="#fefefe" d="M130.4,80h-10.4c-2.5,0-4.6-2-4.6-4.6V29.6c0-2.5,2-4.6,4.6-4.6h10.4c2.5,0,4.6,2,4.6,4.6v45.9
    C135,78,133,80,130.4,80z"/>
<path fill="#fefefe" d="M70.8,80H60.4c-2.5,0-4.6-2-4.6-4.6V29.6c0-2.5,2-4.6,4.6-4.6h10.4c2.5,0,4.6,2,4.6,4.6v45.9
    C75.3,78,73.3,80,70.8,80z"/>
<path fill="#fefefe" d="M132.1,12.3l-11,5.3c-2.2,1.3-5-0.4-5-2.9l0-10.2c0-2.5,2.7-4.2,4.9-3l11,5C134.4,7.6,134.4,11,132.1,12.3z"/>
<path fill="#fefefe" d="M201.6,6.4l-7.4-3.9c-1.5-0.8-3.3,0.3-3.3,2l0,0.7l-5-2.7c-1.5-0.8-3.3,0.3-3.3,2l0,8.1c0,1.7,1.9,2.8,3.4,2
    l5-2.8l0,0.8c0,1.7,1.9,2.8,3.4,2l7.4-4.1C203.2,9.5,203.1,7.3,201.6,6.4z"/>
<path fill="#fefefe" d="M65.6,18.1L65.6,18.1c-4.7,0-8.6-3.9-8.6-8.6l0,0c0-4.7,3.9-8.6,8.6-8.6l0,0c4.7,0,8.6,3.9,8.6,8.6l0,0
    C74.2,14.2,70.3,18.1,65.6,18.1z"/>
<line x1="88.6" y1="80" x2="89.2" y2="78.3"/>
<path fill="#fefefe" d="M4.6,0C2,0,0,2,0,4.6v70.9C0,78,2,80,4.6,80H35c9.6-0.7,13.8-5.5,14-15c0.2-16.6,0.2-31.5,0-48.1
    C49,7,43.2,0,33.6,0H4.6z M27.8,39c0,0,0,16.3-0.1,22.9c0,2.7-8.1,4-8.1,2.4c0-2.4-0.1-4.9-0.1-7.6V23.3c0-2.7,0.1-5.3,0.1-7.6
    c0.2-1.8,8,0,8,1.6C28,24.6,27.8,39,27.8,39z"/>
<path fill="#fefefe" d="M172.3,18.4c2.6,0,4.7-2.1,4.7-4.7V4.7c0-2.6-2.1-4.7-4.7-4.7h-14.8c0,0,0,0,0,0h-2h-9.1
    c-2.6,0-4.7,2.1-4.7,4.7v0.6v14.2v54.9h0.1c0.4,4.1,2.3,5.7,4.6,5.7h11.1c2.6,0,4.7-2.1,4.7-4.7v-0.5V45.5h10.1
    c2.6,0,4.7-2.1,4.7-4.7V29.8c0-2.6-2.1-4.7-4.7-4.7h-10.1v-6.7H172.3z"/>
<path fill="#fefefe" d="M105.2,0.1h-6.3h-0.1h-0.1h-2.5l0,0c-1.4,0-2.9,0-2.9,0c-2.6,0-4.7,2.1-4.7,4.7c0,0,0,0,0,0v0v9.1
    c0,36.7,0,36.7,0,42.8c0,5.2-1,8.2-3.7,9.4c-2.6,1.1-4,1.6-4,6c0,5.6,0.3,7.9,9.1,7.9c2.6,0,3.6,0,4,0c0.1,0,0.2,0,0.2,0
    c0.3,0,1.3,0,3.7,0c9.8,0,11.8-8.3,11.8-16.8l0.2-43.7l0.1,0.1V4.8C109.8,2.2,107.7,0.1,105.2,0.1z"/>
</svg>
