<!-- Generator: Adobe Illustrator 18.0.0, SVG Export Plug-In  -->
<svg version="1.1"
	 xmlns="http://www.w3.org/2000/svg" xmlns:xlink="http://www.w3.org/1999/xlink" xmlns:a="http://ns.adobe.com/AdobeSVGViewerExtensions/3.0/"
	 x="0px" y="0px" width="241.8px" height="125.8px" viewBox="0 0 241.8 125.8" enable-background="new 0 0 241.8 125.8"
	 xml:space="preserve">
<defs>
</defs>
<path fill="#222334" d="M0,5.3C0,2.4,2.4,0,5.3,0h13.4c12,0,20.2,0.6,24.4,1.7c4.2,1.1,7.5,2.9,9.7,5.4c2.2,2.5,3.6,5.3,4.1,8.4
	c0.6,3.1,0.8,9.2,0.8,18.3v33.6c0,8.6-0.4,14.4-1.2,17.3c-0.8,2.9-2.2,5.2-4.2,6.8c-2,1.6-4.5,2.8-7.5,3.4c-3,0.7-7.4,1-13.4,1H5.3
	c-2.9,0-5.3-2.4-5.3-5.3V5.3z M24.9,16.4v63c3.6,0,5.8-0.7,6.6-2.2c0.8-1.4,1.2-5.4,1.2-11.8V28.3c0-4.3-0.1-7.1-0.4-8.3
	c-0.3-1.2-0.9-2.1-1.9-2.7C29.5,16.7,27.6,16.4,24.9,16.4z"/>
<path fill="#222334" d="M90.9,52.6v38c0,2.9-2.3,5.2-5.2,5.2H71.5c-2.9,0-5.2-2.3-5.2-5.2v-38c0-2.9,2.3-5.2,5.2-5.2h14.2
	C88.6,47.3,90.9,49.7,90.9,52.6z"/>
<path fill="#222334" d="M121.1,0c3.1,0,5.6,2.5,5.6,5.6v58.5c0,9.6-0.1,45.8-0.3,48.5c-0.2,2.7-1.1,5.2-2.7,7.4
	c-1.6,2.2-3.8,3.7-6.5,4.6c-2.7,0.8-6.9,1.3-12.4,1.3H92.3v-16.8c1.5,0.1,2.6,0.2,3.3,0.2c1.8,0,3.2-0.4,4.2-1.3
	c1-0.9,1.6-1.9,1.8-3.2c0.2-1.3,0.2-33.7,0.2-37.3V5.9c0-3.3,2.6-5.9,5.9-5.9H121.1z"/>
<path fill="#222334" d="M135.7,47.3h24.6v48.5h-24.2c-0.2,0-0.4-0.2-0.4-0.4V47.3z"/>
<path fill="#222334" d="M169.6,0h42.2v19.2h-17.3v28.2h15.4v18.2h-15.4v30.3h-24.9V0z"/>
<path fill="#222334" d="M241.7,47.3v48.5h-24.6V47.3H241.7z"/>
<path fill="#222334" d="M90.9,26.4v8.7c0,2.9-2.4,5.3-5.3,5.3H72c-3.2,0-5.7-2.6-5.7-5.7v-7.9c0-3.2,2.6-5.7,5.7-5.7h13.6
	C88.6,21.1,90.9,23.5,90.9,26.4z"/>
<rect x="135" y="21.1" fill="#222334" width="24.6" height="19.3"/>
<polygon fill="#E14939" points="236.8,20.7 216.7,40 216.7,20.7 "/>
<g>
	<polygon fill="#E14939" points="236.8,25.4 221.6,40 241.7,40 241.7,33.4 236.8,33.4 	"/>
</g>
<rect x="238.8" y="21.1" fill="#E14939" width="3" height="10.4"/>
</svg>
