<!-- Generator: Adobe Illustrator 18.0.0, SVG Export Plug-In  -->
<svg version="1.1"
     xmlns="http://www.w3.org/2000/svg" xmlns:xlink="http://www.w3.org/1999/xlink" xmlns:a="http://ns.adobe.com/AdobeSVGViewerExtensions/3.0/"
     x="0px" y="0px" width="134.2px" height="52.3px" viewBox="0 0 134.2 52.3" enable-background="new 0 0 134.2 52.3"
     xml:space="preserve">
<defs>
</defs>
<path d="M0,1.7C0,0.8,0.8,0,1.7,0h8.4c6.6,0,11,0.3,13.3,0.9c2.3,0.6,4.1,1.6,5.3,3s2,2.9,2.3,4.6c0.3,1.7,0.5,5,0.5,10v18.3
    c0,4.7-0.2,7.8-0.7,9.4c-0.4,1.6-1.2,2.8-2.3,3.7c-1.1,0.9-2.5,1.5-4.1,1.9s-4.1,0.5-7.3,0.5H1.7c-1,0-1.7-0.8-1.7-1.7V1.7z
     M13.6,10.8v30.6c0,1.1,1.1,2,2.2,1.7c0.7-0.2,1.2-0.5,1.4-0.9c0.5-0.8,0.7-2.9,0.7-6.4V15.5c0-2.4-0.1-3.9-0.2-4.6
    c-0.2-0.7-0.5-1.2-1-1.5c-0.2-0.1-0.6-0.3-1-0.3C14.6,8.9,13.6,9.7,13.6,10.8z"/>
<path d="M49.6,1.7v3.3c0,1-0.8,1.7-1.7,1.7h-10c-1,0-1.7-0.8-1.7-1.7V1.7c0-1,0.8-1.7,1.7-1.7h10C48.9,0,49.6,0.8,49.6,1.7z
     M49.6,11.2v39.4c0,1-0.8,1.7-1.7,1.7h-10c-1,0-1.7-0.8-1.7-1.7V11.2c0-1,0.8-1.7,1.7-1.7h10C48.9,9.4,49.6,10.2,49.6,11.2z"/>
<path d="M69.6,0c1,0,1.7,0.8,1.7,1.7V35c0,5.2-0.1,8.6-0.2,10.1c-0.1,1.5-0.6,2.8-1.5,4.1c-0.9,1.2-2.1,2-3.6,2.5
    c-1.5,0.5-3.8,0.7-6.8,0.7h-5.1c-1,0-1.7-0.8-1.7-1.7V45c0-1,0.8-1.7,1.8-1.7c0,0,0,0,0,0c1,0,1.7-0.2,2.3-0.7
    c0.6-0.5,0.9-1.1,1-1.7c0.1-0.7,0.1-2,0.1-4V1.7c0-1,0.8-1.7,1.7-1.7H69.6z"/>
<path d="M89.7,1.7v3.3c0,1-0.8,1.7-1.7,1.7H78c-1,0-1.7-0.8-1.7-1.7V1.7C76.2,0.8,77,0,78,0h10C88.9,0,89.7,0.8,89.7,1.7z
     M89.7,11.2v39.4c0,1-0.8,1.7-1.7,1.7H78c-1,0-1.7-0.8-1.7-1.7V11.2c0-1,0.8-1.7,1.7-1.7h10C88.9,9.4,89.7,10.2,89.7,11.2z"/>
<path d="M96.5,0h19.6c1,0,1.7,0.8,1.7,1.7v7c0,1-0.8,1.7-1.7,1.7h-6c-1,0-1.7,0.8-1.7,1.7v6.4c0,1,0.8,1.7,1.7,1.7h4.9
    c1,0,1.7,0.8,1.7,1.7v6.5c0,1-0.8,1.7-1.7,1.7h-4.9c-1,0-1.7,0.8-1.7,1.7v18.5c0,1-0.8,1.7-1.7,1.7H96.5c-1,0-1.7-0.8-1.7-1.7V1.7
    C94.8,0.8,95.5,0,96.5,0z"/>
<path d="M134.2,11.2v39.4c0,1-0.8,1.7-1.7,1.7h-10c-1,0-1.7-0.8-1.7-1.7V11.2c0-1,0.8-1.7,1.7-1.7h10
    C133.4,9.4,134.2,10.2,134.2,11.2z"/>
<path d="M133.1,2.6l-5-2.1c-0.8-0.4-1.8,0.2-1.8,1.1l0,0.4l-3.7-1.4c-0.8-0.4-1.8,0.2-1.8,1.1l0,4.4c0,0.9,1,1.5,1.8,1.1l3.7-1.5
    l0,0.4c0,0.9,1,1.5,1.8,1.1l5-2.2C133.9,4.3,133.9,3,133.1,2.6z"/>
</svg>
