<!-- Generator: Adobe Illustrator 18.0.0, SVG Export Plug-In  -->
<svg version="1.1"
     xmlns="http://www.w3.org/2000/svg" xmlns:xlink="http://www.w3.org/1999/xlink" xmlns:a="http://ns.adobe.com/AdobeSVGViewerExtensions/3.0/"
     x="0px" y="0px" width="92.2px" height="36.2px" viewBox="0 0 92.2 36.2" enable-background="new 0 0 92.2 36.2"
     xml:space="preserve">
<defs>
</defs>
<path fill="#111111" d="M0,17.8C0,12.8,0.1,7.7,0,2.6C0,0.8,0.4-0.1,2.4,0c4.2,0.2,8.3,0.2,12.5,0.5c4.2,0.3,6.6,2.7,6.6,7
    c0.1,7.3,0.1,14.7,0,22c-0.1,4.2-1.9,6.1-6.1,6.4c-4.5,0.3-9,0.1-13.5,0.2c-1.7,0-1.9-0.9-1.9-2.3C0.1,28.5,0,23.2,0,17.8z
     M12.1,18.1c0,0,0.1,0,0.1,0c0-3.2,0.1-7.2-0.1-10.4C12.1,7,8.7,6.2,8.6,7c-0.1,6.3-0.1,15.9,0,22.2c0,0.7,3.4-0.1,3.4-0.9
    C12.2,25.2,12.1,21.2,12.1,18.1z"/>
<path fill="#111111" d="M79.1,0.1c2.2,0,1.9,2.7,1.9,3.2c0,3.9,0,4.1-3.7,3.9c-3.1-0.1-2.8-0.1-2.8,3.7c0,3.5-0.5,3.2,2.7,3.2
    c3.1,0,3.1,0,3.1,3.4c0,3.5,0,3.6-3.1,3.6c-2.8,0-2.8,0.7-2.7,2.7c0.1,3.2,0,3,0.1,6.3c0,6.2,0,6.2-4.3,6.2c-5.3,0-5.1,0.1-5.1-6.8
    c0-8.8,0.1-17.7,0-26.5c0-2.1,0.5-3.1,2.8-2.9C69.6,0.2,77,0.1,79.1,0.1z"/>
<path fill="#111111" d="M49,29.9c-0.1,4.1-1.7,5.7-5.7,6.1c-1.1,0.1-2.2,0.1-3.3,0.1c-3.9,0-4.4,0.5-4.4-3.5c0-2.6,1.3-2.7,1.8-2.7
    c2-0.3,2.2-1.6,2.2-3.3c0-7.9,0-15.9,0-23.8c0-2.8,0-2.8,4.5-2.8c4.9,0,4.9,0,4.9,3C49.1,6.3,49.1,25.4,49,29.9z"/>
<path fill="#111111" d="M92.2,21.6c0,4-0.1,8,0,12c0,2.6,0.1,2.6-4.4,2.6c-4.7,0-4.9,0.1-4.9-6.7c0-6.7,0-10.5,0-17.2
    c0-2,0-2.8,4.7-2.8c4.7,0,4.6,0,4.6,6.6C92.2,18.9,92.2,18.7,92.2,21.6z"/>
<path fill="#111111" d="M61.7,21.4c0,4-0.1,8,0,12c0.1,2-0.5,2.8-2.6,2.8c-6.6,0-6.6,0-6.6-6.6c0-6.7,0.1-9.4,0-16
    c0-2.2,0.4-3.1,2.9-3.1c6.3,0.1,6.4-1,6.4,5.3C61.7,18.7,61.7,18.5,61.7,21.4z"/>
<path fill="#111111" d="M34.1,33.6c0,2.5-0.4,2.5-4.6,2.5c-4.7,0-4.7,0.1-4.7-6.6c0-6.7,0-4.8,0-11.5c0-7.6,0.4-7.6,4.6-7.6
    c4.6,0,4.6,0,4.6,7.6C34.1,20.9,34.1,29.5,34.1,33.6z"/>
<path fill="#111111" d="M29.2,8.6L29.2,8.6c-2.3,0-4.2-1.9-4.2-4.2v0c0-2.3,1.9-4.2,4.2-4.2h0c2.3,0,4.2,1.9,4.2,4.2v0
    C33.4,6.7,31.5,8.6,29.2,8.6z"/>
<path fill="#111111" d="M60.1,5.6L55,8.1c-1,0.6-2.3-0.2-2.3-1.4l0-4.8c0-1.2,1.2-1.9,2.3-1.4L60,2.9C61.1,3.5,61.1,5,60.1,5.6z"/>
<path fill="#111111" d="M91.7,2.3l-3.5-1.8c-0.7-0.4-1.5,0.1-1.5,0.9l0,0.3l-2.3-1.2c-0.7-0.4-1.5,0.1-1.5,0.9l0,3.8
    c0,0.8,0.9,1.3,1.6,0.9l2.3-1.3l0,0.4c0,0.8,0.9,1.3,1.6,0.9l3.5-1.9C92.4,3.7,92.4,2.6,91.7,2.3z"/>
</svg>
