<!-- Generator: Adobe Illustrator 18.0.0, SVG Export Plug-In  -->
<svg version="1.1"
     xmlns="http://www.w3.org/2000/svg" xmlns:xlink="http://www.w3.org/1999/xlink" xmlns:a="http://ns.adobe.com/AdobeSVGViewerExtensions/3.0/"
     x="0px" y="0px" width="184.2px" height="72.3px" viewBox="0 0 184.2 72.3" enable-background="new 0 0 184.2 72.3"
     xml:space="preserve">
<defs>
</defs>
<g>
    <path fill="#FFFFFF" d="M0.1,36.1c0,10.5,0,21,0,31.5c0,2.7,0.4,4.6,3.7,4.5c9-0.2,18,0.2,27-0.4c8.4-0.5,12.1-4.4,12.2-12.8
        c0.2-14.7,0.2-29.3,0-44C42.8,6.5,38.1,1.7,29.7,1.1C21.4,0.5,13,0.5,4.7,0.1C0.8-0.1-0.1,1.6,0,5.1C0.2,15.5,0.1,25.8,0.1,36.1z
         M146,0.1c-3.5,0-7,0.3-10.5-0.1c-4.6-0.4-5.6,1.5-5.6,5.8c0.2,17.6,0.1,35.3,0.1,52.9c0,13.7,0,13.6,13.7,13.5
        c4.1,0,5.2-1.7,5.1-5.4c-0.2-6.5,0.2-13-0.1-19.5c-0.2-4.1,1.1-5.6,5.3-5.5c6.1,0.2,5.9,0,6.1-7.1c0.2-4.6-0.6-7.6-6.1-6.7
        c-5.4,0.9-5.5-2.5-5.4-6.3c0.1-3.9-0.7-7.7,5.5-7.4c7.5,0.4,7.5,0,7.5-7.8c0-1,0.3-2.3-0.1-2.9c-1-1.4-2.3-3.3-3.7-3.4
        C154-0.2,150,0.1,146,0.1z M97.9,32.8c0,0,0.1,0,0.1,0c0-6.7,0-13.3,0-20C98,0.1,98,0.3,85,0c-4.8-0.1-6,1.6-5.9,6.1
        c0.2,15.8,0,31.7,0.1,47.5c0,3.2-0.6,5.4-4.3,6.2c-1.1,0.2-2.5,2.1-2.6,3.3c-1.1,8.5-0.4,9.1,8.1,9c1.8,0,3.7,0,5.5-0.1
        c8.6-0.7,11.9-4,12.1-12.6C98,50.5,97.9,41.7,97.9,32.8z M184.1,42.9c0-5.6,0-11.3,0-16.9c0-13.1,0-13-13.2-13
        c-3.8,0-5.4,1.1-5.3,5.1c0.1,16.3,0.1,32.6,0,48.8c0,3.7,1.1,5.6,5.2,5.2c2.6-0.3,5.3-0.2,8,0c4,0.4,5.7-1,5.5-5.3
        C183.8,58.9,184.1,50.9,184.1,42.9z M123.1,42.8c0-5.8,0-11.7,0-17.5c0-12.3,0-12.1-12.5-12.3c-4.6-0.1-6.1,1.3-6,5.9
        c0.2,15.7,0.3,31.3,0,47c-0.1,5.2,1.7,6.9,6.6,6.3c2.3-0.3,4.7-0.2,7,0c3.7,0.3,5.1-1.1,5-4.8C122.9,59.2,123.1,51,123.1,42.8z
         M68.1,42.9C68.1,42.9,68.1,42.9,68.1,42.9c0-5.7,0-11.3,0-17c0-12.9,0-12.7-12.9-12.9c-4.6-0.1-5.6,1.7-5.6,5.9
        c0.2,13.3-0.1,26.7,0.1,40c0.2,15.9-2.9,12.9,13.9,13.3c3.6,0.1,4.5-1.5,4.5-4.8C68,59.2,68.1,51.1,68.1,42.9z M174.9,0.1
        c-1.3,0-2.7,0.1-4,0c-3.3-0.3-5.4,0.4-5.4,4.4c-0.1,4,1.6,5.3,5.4,5c2.6-0.2,5.3-0.2,8,0c3.6,0.2,5.4-0.8,5.4-5
        c0-4.1-2.1-4.7-5.3-4.4C177.5,0.2,176.2,0.1,174.9,0.1z M58.8,9.5c1,0,2,0,3,0c3.4,0.1,6.5,0.4,6.5-4.9c-0.1-5-3-4.6-6.2-4.5
        c-2.3,0-4.6,0.2-6.9,0c-3.6-0.3-5.5,0.7-5.5,4.8c0,4,1.9,4.9,5.2,4.6C56.2,9.4,57.5,9.5,58.8,9.5z M113.8,0.1c-1.3,0-2.7,0.1-4,0
        c-3.4-0.3-5.2,0.6-5.2,4.5c-0.1,4.2,1.8,5.1,5.4,4.9c2.6-0.2,5.3-0.1,7.9,0c3.3,0.2,5.2-0.6,5.3-4.6c0-4.2-1.8-5.2-5.4-4.8
        C116.4,0.2,115.1,0.1,113.8,0.1z"/>
    <path d="M0.1,36.1c0-10.3,0.1-20.7-0.1-31c-0.1-3.5,0.8-5.3,4.7-5.1c8.3,0.5,16.7,0.4,24.9,1C38.1,1.7,42.8,6.5,42.9,15
        c0.2,14.7,0.2,29.3,0,44c-0.1,8.4-3.8,12.3-12.2,12.8c-9,0.5-18,0.2-27,0.4C0.5,72.2,0,70.3,0,67.6C0.1,57.1,0.1,46.6,0.1,36.1z
         M18.8,36.2c0,6.5-0.1,13,0.1,19.5c0,1.2,1.5,2.3,2.3,3.5c1-1.1,2.7-2.2,2.8-3.4c0.3-13.1,0.3-26.3,0.2-39.4c0-1.2-2.1-2.3-3.2-3.5
        c-0.7,1.3-2,2.5-2,3.8C18.7,23.2,18.8,29.7,18.8,36.2z"/>
    <path d="M146,0.1c4,0,8-0.3,12,0.2c1.4,0.2,2.7,2,3.7,3.4c0.5,0.7,0.1,1.9,0.1,2.9c0,7.7,0,8.1-7.5,7.8c-6.2-0.3-5.4,3.5-5.5,7.4
        c-0.1,3.9,0,7.2,5.4,6.3c5.5-0.9,6.3,2.1,6.1,6.7c-0.3,7.1-0.1,7.3-6.1,7.1c-4.2-0.2-5.5,1.4-5.3,5.5c0.3,6.5,0,13,0.1,19.5
        c0.1,3.7-1,5.3-5.1,5.4C130,72.3,130,72.4,130,58.7c0-17.6,0.1-35.3-0.1-52.9c0-4.2,1-6.2,5.6-5.8C139,0.4,142.5,0.1,146,0.1z"/>
    <path d="M97.9,32.8c0,8.8,0.1,17.7,0,26.5c-0.1,8.6-3.4,12-12.1,12.6c-1.8,0.1-3.7,0.1-5.5,0.1c-8.5,0-9.2-0.6-8.1-9
        c0.2-1.3,1.5-3.1,2.6-3.3c3.7-0.7,4.3-3,4.3-6.2c0-15.8,0.1-31.7-0.1-47.5C79,1.6,80.2-0.1,85,0c13,0.2,13,0,13,12.8
        c0,6.7,0,13.3,0,20C98,32.8,97.9,32.8,97.9,32.8z"/>
    <path d="M184.1,42.9c0,8-0.2,16,0.1,23.9c0.2,4.3-1.5,5.7-5.5,5.3c-2.6-0.2-5.3-0.3-8,0c-4.1,0.4-5.2-1.5-5.2-5.2
        c0.1-16.3,0.1-32.6,0-48.8c0-3.9,1.5-5.1,5.3-5.1c13.2,0,13.2-0.1,13.2,13C184.1,31.6,184.1,37.3,184.1,42.9z"/>
    <path d="M123.1,42.8c0,8.2-0.1,16.3,0.1,24.5c0.1,3.8-1.3,5.1-5,4.8c-2.3-0.2-4.7-0.3-7,0c-4.9,0.6-6.7-1.1-6.6-6.3
        c0.3-15.7,0.3-31.3,0-47c-0.1-4.6,1.4-6,6-5.9c12.5,0.3,12.5,0.1,12.5,12.3C123.1,31.2,123.1,37,123.1,42.8z"/>
    <path d="M68.1,42.9c0,8.2-0.1,16.3,0.1,24.5c0.1,3.3-0.8,4.9-4.5,4.8C46.9,71.7,50,74.8,49.8,58.8c-0.2-13.3,0.1-26.7-0.1-40
        c-0.1-4.1,0.9-5.9,5.6-5.9c12.9,0.2,12.9,0,12.9,12.9C68.1,31.6,68.1,37.2,68.1,42.9C68.1,42.9,68.1,42.9,68.1,42.9z"/>
    <path d="M174.9,0.1c1.3,0,2.7,0.1,4,0c3.2-0.2,5.3,0.3,5.3,4.4c0,4.2-1.8,5.2-5.4,5c-2.6-0.1-5.3-0.2-8,0c-3.8,0.3-5.4-1-5.4-5
        c0.1-4,2.1-4.7,5.4-4.4C172.2,0.2,173.5,0.1,174.9,0.1z"/>
    <path d="M58.8,9.5c-1.3,0-2.7-0.1-4,0c-3.4,0.3-5.2-0.6-5.2-4.6c0-4.2,1.8-5.2,5.5-4.8c2.3,0.2,4.6,0.1,6.9,0
        c3.2-0.1,6.2-0.5,6.2,4.5c0.1,5.3-3,5-6.5,4.9C60.8,9.5,59.8,9.5,58.8,9.5z"/>
    <path d="M113.8,0.1c1.3,0,2.7,0.1,4,0c3.6-0.4,5.5,0.7,5.4,4.8c0,4-2,4.7-5.3,4.6c-2.6-0.1-5.3-0.2-7.9,0c-3.6,0.2-5.5-0.7-5.4-4.9
        c0.1-3.9,1.9-4.9,5.2-4.5C111.1,0.2,112.5,0.1,113.8,0.1z"/>
    <path fill="#FFFFFF" d="M18.8,36.2c0-6.5-0.1-13,0.1-19.5c0-1.3,1.3-2.6,2-3.8c1.1,1.2,3.2,2.3,3.2,3.5c0.2,13.1,0.1,26.3-0.2,39.4
        c0,1.1-1.8,2.3-2.8,3.4C20.4,58,19,56.9,19,55.7C18.7,49.2,18.8,42.7,18.8,36.2z"/>
</g>
</svg>
