<!-- Generator: Adobe Illustrator 18.0.0, SVG Export Plug-In  -->
<svg version="1.1"
     xmlns="http://www.w3.org/2000/svg" xmlns:xlink="http://www.w3.org/1999/xlink" xmlns:a="http://ns.adobe.com/AdobeSVGViewerExtensions/3.0/"
     x="0px" y="0px" width="200px" height="81.4px" viewBox="0 0 200 81.4" enable-background="new 0 0 200 81.4" xml:space="preserve"
    >
<defs>
</defs>
<path fill="#222334" d="M195.4,80.4h-10.4c-2.5,0-4.6-2-4.6-4.6V29.9c0-2.5,2-4.6,4.6-4.6h10.4c2.5,0,4.6,2,4.6,4.6v45.9
    C200,78.3,198,80.4,195.4,80.4z"/>
<path fill="#222334" d="M128.4,80.4h-10.4c-2.5,0-4.6-2-4.6-4.6V29.9c0-2.5,2-4.6,4.6-4.6h10.4c2.5,0,4.6,2,4.6,4.6v45.9
    C133,78.3,131,80.4,128.4,80.4z"/>
<path fill="#222334" d="M69.8,80.4H59.4c-2.5,0-4.6-2-4.6-4.6V29.9c0-2.5,2-4.6,4.6-4.6h10.4c2.5,0,4.6,2,4.6,4.6v45.9
    C74.3,78.3,72.3,80.4,69.8,80.4z"/>
<line fill="#222334" x1="86.6" y1="81.4" x2="87.2" y2="79.6"/>
<path fill="#222334" d="M4.6,0.4C2,0.4,0,2.4,0,4.9v70.9c0,2.5,2,4.6,7.6,4.6H38c6.6-0.7,10.8-5.5,11-15c0.2-16.6,0.2-31.5,0-48.1
    c0-9.8-5.8-16.8-15.4-16.8H4.6z M30.8,39.4c0,0,0,16.3-0.1,22.9c0,2.7-12.1,4-12.1,2.4c0-2.4-0.1-4.9-0.1-7.6V23.7
    c0-2.7,0.1-5.3,0.1-7.6c0.2-1.8,12,0,12,1.6C31,24.9,30.8,39.4,30.8,39.4z"/>
<path fill="#222334" d="M170.3,17.8c2.6,0,4.7-2.1,4.7-4.7V5c0-2.6-2.1-4.7-4.7-4.7h-14.8c0,0,0,0,0,0h-2h-9.1
    c-2.6,0-4.7,2.1-4.7,4.7v0.6v14.2v54.9h0.1c0.4,4.1,2.3,5.7,4.6,5.7h11.1c2.6,0,4.7-2.1,4.7-4.7v-0.5V45.9h10.1
    c2.6,0,4.7-2.1,4.7-4.7V30.2c0-2.6-2.1-4.7-4.7-4.7h-10.1v-7.7H170.3z"/>
<path fill="#222334" d="M103.2,0.4h-6.3h-0.1h-0.1h-2.5l0,0c-1.4,0-2.9,0-2.9,0c-2.6,0-4.7,2.1-4.7,4.7c0,0,0,0,0,0v0v9.1
    c0,36.7,0,36.7,0,42.8c0,5.2-1,8.2-3.7,9.4c-2.6,1.1-4,1.6-4,6c0,5.6,0.3,7.9,9.1,7.9c2.6,0,3.6,0,4,0c0.1,0,0.2,0,0.2,0
    c0.3,0,1.3,0,3.7,0c9.8,0,11.8-8.3,11.8-16.8l0.2-43.7l0.1,0.1V5C107.8,2.5,105.7,0.4,103.2,0.4z"/>
<path fill="#222334" d="M198.3,11.6l-11,5.3c-2.2,1.3-5-0.4-5-2.9l0-10.2c0-2.5,2.7-4.2,4.9-3l11,5C200.6,7,200.7,10.3,198.3,11.6z"
    />
<path fill="#222334" d="M123.3,17.6L123.3,17.6c-4.7,0-8.6-3.9-8.6-8.6l0,0c0-4.7,3.9-8.6,8.6-8.6l0,0c4.7,0,8.6,3.9,8.6,8.6l0,0
    C131.9,13.7,128,17.6,123.3,17.6z"/>
<g>
    <path fill="#222334" d="M59.7,18L59.7,18c-1.9,0-3.4-1.5-3.4-3.4V3.4c0-1.9,1.5-3.4,3.4-3.4h0c1.9,0,3.4,1.5,3.4,3.4v11.2
        C63.1,16.5,61.5,18,59.7,18z"/>
    <path fill="#222334" d="M69.5,18L69.5,18c-1.9,0-3.4-1.5-3.4-3.4V3.4c0-1.9,1.5-3.4,3.4-3.4h0c1.9,0,3.4,1.5,3.4,3.4v11.2
        C72.9,16.5,71.4,18,69.5,18z"/>
</g>
</svg>
